<svg viewBox="0 0 48 48" clip-rule="evenodd" xmlns="http://www.w3.org/2000/svg">
  <path fill="#fff" d="M4.9,43.3l2.7-9.8C5.9,30.6,5,27.3,5,24C5,13.5,13.5,5,24,5c5.1,0,9.8,2,13.4,5.6C41,14.2,43,18.9,43,24 c0,10.5-8.5,19-19,19c0,0,0,0,0,0h0c-3.2,0-6.3-0.8-9.1-2.3L4.9,43.3z" transform="matrix(1, 0, 0, 1, 0, 1.7763568394002505e-15)"/>
  <path fill="#fff" d="M4.9,43.8c-0.1,0-0.3-0.1-0.4-0.1c-0.1-0.1-0.2-0.3-0.1-0.5L7,33.5c-1.6-2.9-2.5-6.2-2.5-9.6 C4.5,13.2,13.3,4.5,24,4.5c5.2,0,10.1,2,13.8,5.7c3.7,3.7,5.7,8.6,5.7,13.8c0,10.7-8.7,19.5-19.5,19.5c-3.2,0-6.3-0.8-9.1-2.3 L5,43.8C5,43.8,4.9,43.8,4.9,43.8z" transform="matrix(1, 0, 0, 1, 0, 1.7763568394002505e-15)"/>
  <path fill="#cfd8dc" d="M24,5c5.1,0,9.8,2,13.4,5.6C41,14.2,43,18.9,43,24c0,10.5-8.5,19-19,19h0c-3.2,0-6.3-0.8-9.1-2.3L4.9,43.3 l2.7-9.8C5.9,30.6,5,27.3,5,24C5,13.5,13.5,5,24,5 M24,43L24,43L24,43 M24,43L24,43L24,43 M24,4L24,4C13,4,4,13,4,24 c0,3.4,0.8,6.7,2.5,9.6L3.9,43c-0.1,0.3,0,0.7,0.3,1c0.2,0.2,0.4,0.3,0.7,0.3c0.1,0,0.2,0,0.3,0l9.7-2.5c2.8,1.5,6,2.2,9.2,2.2 c11,0,20-9,20-20c0-5.3-2.1-10.4-5.8-14.1C34.4,6.1,29.4,4,24,4L24,4z" transform="matrix(1, 0, 0, 1, 0, 1.7763568394002505e-15)"/>
  <path fill="#40c351" d="M35.2,12.8c-3-3-6.9-4.6-11.2-4.6C15.3,8.2,8.2,15.3,8.2,24c0,3,0.8,5.9,2.4,8.4L11,33l-1.6,5.8l6-1.6l0.6,0.3 c2.4,1.4,5.2,2.2,8,2.2h0c8.7,0,15.8-7.1,15.8-15.8C39.8,19.8,38.2,15.8,35.2,12.8z" transform="matrix(1, 0, 0, 1, 0, 1.7763568394002505e-15)"/>
  <path d="M 20.038 19.106 C 20.32 16.282 22.697 14.131 25.535 14.131 C 28.374 14.131 30.751 16.282 31.033 19.106 L 31.32 21.973 C 31.337 22.147 31.346 22.234 31.356 22.32 C 31.5 23.503 31.907 24.639 32.547 25.645 C 32.593 25.718 32.642 25.791 32.739 25.936 L 33.6 27.228 C 34.386 28.408 34.779 28.997 34.607 29.472 C 34.574 29.562 34.529 29.647 34.472 29.724 C 34.173 30.131 33.464 30.131 32.046 30.131 L 19.025 30.131 C 17.607 30.131 16.898 30.131 16.599 29.724 C 16.542 29.647 16.497 29.562 16.464 29.472 C 16.291 28.997 16.685 28.408 17.471 27.228 L 18.332 25.936 C 18.429 25.791 18.478 25.718 18.524 25.645 C 19.164 24.639 19.571 23.503 19.715 22.32 C 19.725 22.234 19.734 22.147 19.751 21.973 L 20.038 19.106 Z" style="fill: rgb(255, 255, 255); paint-order: fill; transform-origin: 25.5353px 22.131px;" transform="matrix(0.754710018635, 0.656059026718, -0.656059026718, 0.754710018635, -3.38638e-7, 0.000001873512)"/>
  <path d="M 16.509 30.108 C 16.623 30.214 16.874 30.308 17.223 30.375 C 17.572 30.442 18 30.478 18.44 30.478 C 18.881 30.478 19.309 30.442 19.658 30.375 C 20.007 30.308 20.258 30.214 20.372 30.108" stroke-width="2" stroke-linecap="round" style="fill: rgb(255, 255, 255); paint-order: fill; stroke: rgb(255, 255, 255); transform-origin: 18.4405px 30.293px;" transform="matrix(0.754710018635, 0.656059026718, -0.656059026718, 0.754710018635, 8.07086e-7, 0.000003143089)"/>
</svg>